# xmcd CD database file
#
# Track frame offsets:
#	150
#	14507
#	25025
#	36490
#	44781
#	51382
#	67554
#	76963
#	83823
#	93422
#	105550
#	118949
#	128607
#	140774
#	153524
#	160655
#
# Disc length: 2306 seconds
#
# Revision: 0
# Processed by: cddbd v1.5.2PL0 Copyright (c) Steve Scherf et al.
# Submitted via: CDex 1.51
#
DISCID=d1090010
DTITLE=Nat King Cole - Unforgettable
DYEAR=1900
DGENRE=Jazz
TTITLE0=Darling Je Vous Aime Beau
TTITLE1=It's Crazy But I'm In Love
TTITLE2=Sand and The Sea
TTITLE3=Crazy Rhythm
TTITLE4=Thou Smell
TTITLE5=End Of A  Beautiful Affair
TTITLE6=It's Only a Paper Moon
TTITLE7=You Stepped Out Of a Dream
TTITLE8=Somebody Loves Me
TTITLE9=Mona Lisa
TTITLE10=Cuba
TTITLE11=To the Ends Of the Earth
TTITLE12=Autumn Leaves
TTITLE13=Route 66
TTITLE14=When Your Smiling
TTITLE15=Unforgettable
EXTD=
EXTT0=
EXTT1=
EXTT2=
EXTT3=
EXTT4=
EXTT5=
EXTT6=
EXTT7=
EXTT8=
EXTT9=
EXTT10=
EXTT11=
EXTT12=
EXTT13=
EXTT14=
EXTT15=
PLAYORDER=
